<svg xmlns="http://www.w3.org/2000/svg" width="24" height="24" viewBox="0 0 24 24">
  <g id="그룹_7" data-name="그룹 7" transform="translate(0.175 0.122)">
    <path id="bolt-solid" d="M23.235,13.142H19.624l1.352-4.07a.753.753,0,0,0-.539-.918.783.783,0,0,0-.185,0H15.764a.748.748,0,0,0-.773.633l-1,7.506a.748.748,0,0,0,.648.843h3.805l-1.461,6.094a.748.748,0,0,0,1.381.544l5.486-9.506a.743.743,0,0,0-.269-1.022A.718.718,0,0,0,23.235,13.142Z" transform="translate(-7.099 -4.146)" fill="#fff"/>
    <path id="빼기_2" data-name="빼기 2" d="M11.847,23.878a12,12,0,1,1,8.578-3.631l-.14.135A11.835,11.835,0,0,1,11.847,23.878ZM11.847,2a9.95,9.95,0,1,0,9.945,9.948A9.95,9.95,0,0,0,11.847,2Z" transform="translate(0 0)" fill="#fff"/>
  </g>
</svg>
