<svg xmlns="http://www.w3.org/2000/svg" width="32" height="24" viewBox="0 0 32 24">
  <path id="ESS" d="M30,68H28V65a1,1,0,0,0-1-1H21a1,1,0,0,0-1,1v3H12V65a1,1,0,0,0-1-1H5a1,1,0,0,0-1,1v3H2a2,2,0,0,0-2,2V86a2,2,0,0,0,2,2H30a2,2,0,0,0,2-2V70A2,2,0,0,0,30,68ZM12,76.5a.5.5,0,0,1-.5.5h-7a.5.5,0,0,1-.5-.5v-1a.5.5,0,0,1,.5-.5h7a.5.5,0,0,1,.5.5Zm16,0a.5.5,0,0,1-.5.5H25v2.5a.5.5,0,0,1-.5.5h-1a.5.5,0,0,1-.5-.5V77H20.5a.5.5,0,0,1-.5-.5v-1a.5.5,0,0,1,.5-.5H23V72.5a.5.5,0,0,1,.5-.5h1a.5.5,0,0,1,.5.5V75h2.5a.5.5,0,0,1,.5.5Z" transform="translate(0 -64)" fill="#fff"/>
</svg>
