<svg xmlns="http://www.w3.org/2000/svg" width="30" height="24" viewBox="0 0 30 24">
  <path id="PV" d="M27.432,1.253A1.52,1.52,0,0,0,25.925,0H4.073A1.52,1.52,0,0,0,2.566,1.253l-2.546,15A1.509,1.509,0,0,0,1.527,18H10.5v3.761H9a.75.75,0,0,0-.749.749l0,.737A.75.75,0,0,0,9,24l12-.012a.75.75,0,0,0,.749-.749l0-.737A.75.75,0,0,0,21,21.751H19.5V18h8.972a1.508,1.508,0,0,0,1.507-1.747l-2.545-15ZM26.169,7.5h-5.69l-.525-5.25h5.324Zm-14.39,0L12.3,2.25h5.389l.525,5.25Zm6.665,2.25.6,6h-8.09l.6-6ZM4.72,2.25h5.324L9.519,7.5H3.828ZM3.446,9.75H9.293l-.6,6H2.428Zm13.8,12-4.5,0V18h4.5Zm4.055-6-.6-6h5.847l1.018,6Z" transform="translate(0.001)" fill="#fff"/>
</svg>
