<svg xmlns="http://www.w3.org/2000/svg" width="27" height="24" viewBox="0 0 27 24">
  <path id="EV_chargers" data-name="EV chargers" d="M15.75,21H.75a.75.75,0,0,0-.75.75v1.5A.75.75,0,0,0,.75,24h15a.75.75,0,0,0,.75-.75v-1.5A.75.75,0,0,0,15.75,21ZM25.5,6V3.75a.75.75,0,0,0-1.5,0V6H22.5V3.75a.75.75,0,0,0-1.5,0V6h-.75a.75.75,0,0,0-.75.75v1.5a3.737,3.737,0,0,0,2.625,3.559v5.554a1.365,1.365,0,0,1-1.09,1.368A1.315,1.315,0,0,1,19.5,17.438V16.125A4.125,4.125,0,0,0,15.375,12H15V3a3,3,0,0,0-3-3H4.5a3,3,0,0,0-3,3V19.5H15V14.25h.375a1.875,1.875,0,0,1,1.875,1.875v1.154a3.67,3.67,0,0,0,3.207,3.7,3.566,3.566,0,0,0,3.918-3.545V11.809A3.737,3.737,0,0,0,27,8.25V6.75A.75.75,0,0,0,26.25,6ZM12.192,8.239,7.8,14.754A.581.581,0,0,1,7.313,15a.513.513,0,0,1-.547-.606L7.845,10.5H5.063a.52.52,0,0,1-.557-.557l.75-5.016A.543.543,0,0,1,5.813,4.5H9a.511.511,0,0,1,.544.619L9,7.5h2.7A.5.5,0,0,1,12.192,8.239Z" fill="#fff"/>
</svg>
