<svg id="gas" xmlns="http://www.w3.org/2000/svg" width="24" height="24" viewBox="0 0 24 24">
  <path id="패스_15" data-name="패스 15" d="M24,5V4H23V1.5a.5.5,0,0,0-.5-.5H20V0H19V1H17.5V0h-1V1H15V0H14V1H12.5V0h-1V1H10V0H9V1H7.5V0h-1V1H5V0H4V1H1.5a.5.5,0,0,0-.5.5V4H0V5H1V6.5H0v1H1V9H0v1H1v1.5H0v1H1V14H0v1H1v1.5H0v1H1V19a.5.5,0,0,0,.145.355l3.5,3.5A.5.5,0,0,0,5,23H6.5v1h1V23H9v1h1V23h1.5v1h1V23H14v1h1V23h1.5v1h1V23H19v1h1V23h2.5a.5.5,0,0,0,.5-.5V20h1V19H23V17.5h1v-1H23V15h1V14H23V12.5h1v-1H23V10h1V9H23V7.5h1v-1H23V5ZM22,22H5.2l-3-3H5.87a.4.4,0,0,0,.395-.4V13.04a.4.4,0,0,0-.395-.4H2V2H22Z" fill="#fff"/>
  <path id="패스_16" data-name="패스 16" d="M19.685,27.67H14.12v3.975h5.565a.395.395,0,0,0,.4-.4V28.07a.4.4,0,0,0-.4-.4Z" transform="translate(-7.06 -13.835)" fill="#fff"/>
  <path id="패스_17" data-name="패스 17" d="M12.584,13.316a2,2,0,0,0,1.955,1.625A3.5,3.5,0,0,0,16.3,14.5a2.685,2.685,0,0,1,1.41-.355,2.321,2.321,0,0,1,2,1.6,2.436,2.436,0,0,1,.105,2.1.4.4,0,0,0-.115.28v1.59a.395.395,0,0,0,.395.4,3.329,3.329,0,0,0,2.78-3.18,3.41,3.41,0,0,0-.44-1.765,2.7,2.7,0,0,1-.355-1.415,1.36,1.36,0,0,1,.27-.975,3.248,3.248,0,0,0,.525-2.2,3.045,3.045,0,0,0-1.345-2.5,2.825,2.825,0,0,0-2.5-.325,3.565,3.565,0,0,0-6.5,1.67,2,2,0,0,0,0,3.9Z" transform="translate(-5.489 -3.091)" fill="#fff"/>
</svg>
