<svg xmlns="http://www.w3.org/2000/svg" width="22" height="24" viewBox="0 0 22 24">
  <path id="빼기_3" data-name="빼기 3" d="M24.29,24H9.235V22.8H6.92V20.4H2.29V2.4H6.92V1.2H9.235V0H24.29Zm-9.265-9.6a1.2,1.2,0,1,0,1.16,1.24V15.6A1.185,1.185,0,0,0,15.025,14.4Zm-3.47,0a1.2,1.2,0,1,0,1.155,1.24V15.6a1.18,1.18,0,0,0-1.16-1.2Zm-3.5,0A1.2,1.2,0,1,0,9.21,15.64a.1.1,0,0,0,0-.04,1.18,1.18,0,0,0-1.16-1.2Zm-3.475,0a1.188,1.188,0,1,0,.025,0ZM3.445,3.6V12h13.9V3.6Z" transform="translate(-2.29)" fill="#fff"/>
</svg>
