<svg xmlns="http://www.w3.org/2000/svg" width="27.872" height="24" viewBox="0 0 27.872 24">
  <g id="UPS" transform="translate(0 -3.67)">
    <path id="패스_12" data-name="패스 12" d="M45.949,32.984a.674.674,0,0,0-.674-.674H43.26v1.347h2.015A.674.674,0,0,0,45.949,32.984Z" transform="translate(-18.139 -12.009)" fill="#fff"/>
    <path id="패스_13" data-name="패스 13" d="M45.275,39.258H43.26V40.6h2.015a.674.674,0,1,0,0-1.341Z" transform="translate(-18.139 -14.921)" fill="#fff"/>
    <path id="패스_14" data-name="패스 14" d="M24.11,18.96h-.674a.337.337,0,0,0-.331.337v.337h-.674a3.356,3.356,0,0,0-3.269,2.689H18V4.791A1.121,1.121,0,0,0,16.875,3.67H1.127A1.121,1.121,0,0,0,0,4.791V26.543A1.121,1.121,0,0,0,1.127,27.67H16.875A1.121,1.121,0,0,0,18,26.543v-2.9h1.161a3.362,3.362,0,0,0,3.293,2.689h.674v.337A.337.337,0,0,0,23.46,27h.674a.337.337,0,0,0,.337-.337V19.3a.337.337,0,0,0-.36-.337ZM6,22.444a.749.749,0,0,1-.772.726H3.751A.749.749,0,0,1,3,22.444V20.922a.755.755,0,0,1,.749-.755H5.226a.755.755,0,0,1,.749.755Zm0-6a.755.755,0,0,1-.772.732H3.751A.755.755,0,0,1,3,16.416V14.895a.749.749,0,0,1,.749-.749H5.226A.749.749,0,0,1,6,14.895Zm0-6a.749.749,0,0,1-.772.726H3.751A.749.749,0,0,1,3,10.418v-1.5a.749.749,0,0,1,.749-.749H5.226a.749.749,0,0,1,.749.749Zm9,11.614a.377.377,0,0,1-.372.377H7.874a.377.377,0,0,1-.372-.377v-.772a.372.372,0,0,1,.372-.372h6.753a.372.372,0,0,1,.372.372Zm0-6a.372.372,0,0,1-.372.372H7.874a.372.372,0,0,1-.372-.372V15.3a.377.377,0,0,1,.372-.377h6.753A.377.377,0,0,1,15,15.3Zm0-6a.372.372,0,0,1-.372.372H7.874a.372.372,0,0,1-.372-.372V9.3a.372.372,0,0,1,.372-.372h6.753A.372.372,0,0,1,15,9.3Z" transform="translate(0)" fill="#fff"/>
  </g>
</svg>
